+15_US_stride3.mot
nRows=123
nColumns=3

name +15_US_stride3.mot
datacolumns 3
datarows 123
range 0.800000 1.410000
endheader
time	soleus_l	med_gas_l
        0.8000000000	       30.3068682808	       33.3527966911	
        0.8050000000	       29.8751166246	       33.3000483694	
        0.8100000000	       29.6241609776	       33.2134463386	
        0.8150000000	       29.4762564893	       33.0264106236	
        0.8200000000	       29.5251696836	       32.7666444785	
        0.8250000000	       29.7007154488	       32.4616138154	
        0.8300000000	       29.9708247743	       32.1546981976	
        0.8350000000	       30.2302208470	       31.9016896762	
        0.8400000000	       30.4087936253	       31.7403995887	
        0.8450000000	       30.5659797682	       31.6005367397	
        0.8500000000	       30.6646008073	       31.4976969474	
        0.8550000000	       30.6941185099	       31.4350053080	
        0.8600000000	       30.6686138486	       31.3861047236	
        0.8650000000	       30.6194393458	       31.3121522218	
        0.8700000000	       30.5828637132	       31.2259547086	
        0.8750000000	       30.5638492036	       31.1094028285	
        0.8800000000	       30.5599452354	       30.8965254497	
        0.8850000000	       30.5852789540	       30.6685338406	
        0.8900000000	       30.6223561989	       30.4306784450	
        0.8950000000	       30.6285300335	       30.1958885908	
        0.9000000000	       30.6160996793	       29.9935429202	
        0.9050000000	       30.5522331258	       29.8305172300	
        0.9100000000	       30.4222337796	       29.6064365757	
        0.9150000000	       30.2275787201	       29.3503635573	
        0.9200000000	       30.0074363748	       29.0856793353	
        0.9250000000	       29.8010774858	       28.8338583334	
        0.9300000000	       29.6473999866	       28.6356738319	
        0.9350000000	       29.4813133485	       28.4167915717	
        0.9400000000	       29.3016810555	       28.1928612334	
        0.9450000000	       29.1140826018	       27.9981295522	
        0.9500000000	       28.8999939311	       27.8292231083	
        0.9550000000	       28.6331662026	       27.6641677314	
        0.9600000000	       28.3962108019	       27.5376356695	
        0.9650000000	       28.1355219083	       27.4115989370	
        0.9700000000	       27.7672596383	       27.2475240696	
        0.9750000000	       27.3855844808	       27.0885869445	
        0.9800000000	       26.9851654080	       26.9244110788	
        0.9850000000	       26.5960423062	       26.7572015405	
        0.9900000000	       26.2390519999	       26.5925006905	
        0.9950000000	       25.9286734255	       26.4381102614	
        1.0000000000	       25.5222083291	       26.2299505386	
        1.0050000000	       25.0706586346	       26.0072039423	
        1.0100000000	       24.6470893233	       25.8295813207	
        1.0150000000	       24.2505687723	       25.7131721437	
        1.0200000000	       23.9146477712	       25.6717260731	
        1.0250000000	       23.7125405492	       25.6817276430	
        1.0300000000	       23.5691008557	       25.7078491589	
        1.0350000000	       23.4751987826	       25.7374612468	
        1.0400000000	       23.5048795584	       25.7131932414	
        1.0450000000	       23.6522964843	       25.6093389652	
        1.0500000000	       23.8665869527	       25.4596764840	
        1.0550000000	       24.1333440211	       25.2750664867	
        1.0600000000	       24.5923139614	       24.9741939438	
        1.0650000000	       25.1325379320	       24.6551121941	
        1.0700000000	       25.7047240425	       24.3676770820	
        1.0750000000	       26.2762868240	       24.1584167961	
        1.0800000000	       26.7653960434	       24.0762827115	
        1.0850000000	       27.0893942611	       24.1046698339	
        1.0900000000	       27.4370253133	       24.2418318920	
        1.0950000000	       27.7649713911	       24.5736119164	
        1.1000000000	       28.0560149377	       25.0352171481	
        1.1050000000	       28.3621219304	       25.5844959423	
        1.1100000000	       28.7093632388	       26.1434431167	
        1.1150000000	       28.9946500538	       26.5223704454	
        1.1200000000	       29.2825889822	       26.8317744715	
        1.1250000000	       29.6256167760	       27.1102315668	
        1.1300000000	       29.9074939820	       27.2577353462	
        1.1350000000	       30.1066461498	       27.2916590773	
        1.1400000000	       30.2648681519	       27.2818814645	
        1.1450000000	       30.4007655668	       27.2551207750	
        1.1500000000	       30.5304648416	       27.2351817981	
        1.1550000000	       30.7573447643	       27.2302005846	
        1.1600000000	       31.0458693731	       27.2443726904	
        1.1650000000	       31.3611552287	       27.2968485462	
        1.1700000000	       31.6450134097	       27.3773893783	
        1.1750000000	       31.8377283779	       27.4564542154	
        1.1800000000	       32.0357822643	       27.5635074203	
        1.1850000000	       32.2113142102	       27.6737199043	
        1.1900000000	       32.3582744148	       27.7452385616	
        1.1950000000	       32.5128948265	       27.7710856910	
        1.2000000000	       32.7013741247	       27.7434934967	
        1.2050000000	       32.8720940227	       27.7051251063	
        1.2100000000	       33.0650464822	       27.6780921351	
        1.2150000000	       33.3181420646	       27.6696294883	
        1.2200000000	       33.5412928335	       27.7381006579	
        1.2250000000	       33.7023996811	       27.8777883115	
        1.2300000000	       33.7706841467	       28.0767736335	
        1.2350000000	       33.7786527835	       28.2651914447	
        1.2400000000	       33.7459391152	       28.4134248972	
        1.2450000000	       33.6868575705	       28.5880772154	
        1.2500000000	       33.6523597805	       28.7347625682	
        1.2550000000	       33.6593016147	       28.8497295420	
        1.2600000000	       33.7476273171	       28.9444255536	
        1.2650000000	       33.9114208774	       29.0211069302	
        1.2700000000	       34.0716566994	       29.0688555188	
        1.2750000000	       34.2898502508	       29.1119192990	
        1.2800000000	       34.5847151316	       29.1519175883	
        1.2850000000	       34.8823845124	       29.1865447639	
        1.2900000000	       35.1840475237	       29.2465354214	
        1.2950000000	       35.4720167534	       29.3685053318	
        1.3000000000	       35.6778539788	       29.5300015920	
        1.3050000000	       35.8429141628	       29.7401797086	
        1.3100000000	       36.0339571772	       30.1167866771	
        1.3150000000	       36.1997635201	       30.5869071634	
        1.3200000000	       36.3477949781	       31.1208844498	
        1.3250000000	       36.4598558035	       31.5945077698	
        1.3300000000	       36.5371883501	       31.9678550666	
        1.3350000000	       36.6021077229	       32.4076057742	
        1.3400000000	       36.5971029269	       32.7675648502	
        1.3450000000	       36.5259577745	       33.0180286351	
        1.3500000000	       36.3456898802	       33.1766788207	
        1.3550000000	       36.0845142303	       33.2648948532	
        1.3600000000	       35.8506509117	       33.3057695794	
        1.3650000000	       35.5569631014	       33.3520046316	
        1.3700000000	       35.1966865718	       33.4186225006	
        1.3750000000	       34.8768364258	       33.5056035257	
        1.3800000000	       34.6070719999	       33.6023320924	
        1.3850000000	       34.3920668812	       33.6732031472	
        1.3900000000	       34.2420261233	       33.6771351493	
        1.3950000000	       34.1076493579	       33.6518403169	
        1.4000000000	       33.8920209867	       33.5338780248	
        1.4050000000	       33.6001655887	       33.3581845091	
        1.4100000000	       33.2101262513	       33.1565865567	
